<svg width="380" height="791" viewBox="0 0 380 791" fill="none" xmlns="http://www.w3.org/2000/svg">
<path d="M169 36L241.923 78.9454L315.358 121L314.847 206L315.358 291L241.923 333.055L169 376L96.0765 333.055L22.6417 291L23.153 206L22.6417 121L96.0765 78.9454L169 36Z" fill="#FFB800"/>
<path d="M350 308L399.191 336.672L448.727 364.75L448.382 421.5L448.727 478.25L399.191 506.328L350 535L300.809 506.328L251.273 478.25L251.618 421.5L251.273 364.75L300.809 336.672L350 308Z" fill="#FFB800"/>
<path d="M227.5 493L284.242 526.093L341.382 558.5L340.984 624L341.382 689.5L284.242 721.907L227.5 755L170.758 721.907L113.618 689.5L114.016 624L113.618 558.5L170.758 526.093L227.5 493Z" fill="#DEDEDF"/>
</svg>
