<svg width="420" height="548" viewBox="0 0 420 548" fill="none" xmlns="http://www.w3.org/2000/svg">
<path opacity="0.5" d="M129 0L184.663 32.7143L240.717 64.75L240.327 129.5L240.717 194.25L184.663 226.286L129 259L73.3365 226.286L17.2827 194.25L17.673 129.5L17.2827 64.75L73.3365 32.7143L129 0Z" fill="#FFB800"/>
<path opacity="0.5" d="M267 207L304.54 228.852L342.344 250.25L342.081 293.5L342.344 336.75L304.54 358.148L267 380L229.459 358.148L191.656 336.75L191.919 293.5L191.656 250.25L229.459 228.852L267 207Z" fill="#FFB800"/>
<path d="M173.5 348L216.866 373.262L260.536 398L260.232 448L260.536 498L216.866 522.738L173.5 548L130.134 522.738L86.4644 498L86.7685 448L86.4644 398L130.134 373.262L173.5 348Z" fill="#DEDEDF"/>
</svg>
