<svg width="50" height="50" viewBox="0 0 50 50" fill="none" xmlns="http://www.w3.org/2000/svg">
<path d="M25 0L46.6506 12.5V37.5L25 50L3.34937 37.5V12.5L25 0Z" fill="#FFB800"/>
<path d="M32 16C32.5304 16 33.0391 16.2107 33.4142 16.5858C33.7893 16.9609 34 17.4696 34 18V32C34 32.5304 33.7893 33.0391 33.4142 33.4142C33.0391 33.7893 32.5304 34 32 34H18C17.4696 34 16.9609 33.7893 16.5858 33.4142C16.2107 33.0391 16 32.5304 16 32V18C16 17.4696 16.2107 16.9609 16.5858 16.5858C16.9609 16.2107 17.4696 16 18 16H32ZM31.5 31.5V26.2C31.5 25.3354 31.1565 24.5062 30.5452 23.8948C29.9338 23.2835 29.1046 22.94 28.24 22.94C27.39 22.94 26.4 23.46 25.92 24.24V23.13H23.13V31.5H25.92V26.57C25.92 25.8 26.54 25.17 27.31 25.17C27.6813 25.17 28.0374 25.3175 28.2999 25.5801C28.5625 25.8426 28.71 26.1987 28.71 26.57V31.5H31.5ZM19.88 21.56C20.3256 21.56 20.7529 21.383 21.0679 21.0679C21.383 20.7529 21.56 20.3256 21.56 19.88C21.56 18.95 20.81 18.19 19.88 18.19C19.4318 18.19 19.0019 18.3681 18.685 18.685C18.3681 19.0019 18.19 19.4318 18.19 19.88C18.19 20.81 18.95 21.56 19.88 21.56ZM21.27 31.5V23.13H18.5V31.5H21.27Z" fill="#1E1E1E"/>
</svg>
