<svg width="233" height="93" viewBox="0 0 233 93" fill="none" xmlns="http://www.w3.org/2000/svg">
<path d="M83.5619 32.4388V47.3704H80.1273V32.268C80.1273 30.6009 80.4667 29.6489 82.5074 29.3778C86.3497 28.8676 89.6498 29.3778 92.2348 31.8603L90.2624 34.4453C88.3925 32.4388 86.0103 31.997 83.5619 32.4388Z" fill="#231F20"/>
<path d="M101.657 47.7786C95.9085 47.9494 93.7654 45.0912 93.7654 42.0643C93.7654 39.0374 96.5212 35.7373 102.099 35.7373C102.814 35.7373 104.071 35.8739 105.194 36.3841V35.3296C105.194 33.1523 103.8 32.0636 101.01 32.0636C99.3773 32.0636 97.7443 32.5397 96.1455 33.3231L95.2959 30.7039C97.0975 29.786 99.1062 29.2417 101.691 29.2417C106.317 29.2417 108.562 31.4532 108.562 35.2954V46.3506C105.977 47.4392 103.971 47.6762 101.657 47.7786ZM105.16 38.9371C103.969 38.4269 102.983 38.3245 102.167 38.3245C100.568 38.3245 97.2683 39.0395 97.2683 42.0664C97.2683 44.2437 99.2748 45.2299 101.589 45.2299C102.78 45.2641 104.071 45.0933 105.16 44.5831V38.9371Z" fill="#231F20"/>
<path d="M124.717 37.949C124.717 32.4737 120.67 31.9635 116.486 32.6082V47.369H113.152V32.3349C113.152 30.702 113.491 29.7841 115.532 29.5108C121.79 28.6954 128.117 29.7158 128.117 38.0493V47.369H124.715V37.9468L124.717 37.949Z" fill="#231F20"/>
<path d="M137.685 47.3703V34.0034H139.506V47.3703H137.685Z" fill="#231F20"/>
<path d="M148.919 42.2773C148.919 39.3166 146.731 39.0413 144.469 39.3914V47.3727H142.667V39.2462C142.667 38.3625 142.851 37.8673 143.954 37.72C147.338 37.2781 150.757 37.831 150.757 42.335V47.3727H148.919V42.2795V42.2773Z" fill="#231F20"/>
<path d="M159.729 42.2773C159.729 39.3166 157.541 39.0413 155.278 39.3914V47.3727H153.477V39.2462C153.477 38.3625 153.66 37.8673 154.764 37.72C158.147 37.2781 161.567 37.831 161.567 42.335V47.3727H159.729V42.2795V42.2773Z" fill="#231F20"/>
<path d="M168.314 47.5729C165.887 47.5729 164.011 45.6603 164.011 42.5523C164.011 39.4443 165.904 37.5146 168.367 37.5146C170.831 37.5146 172.707 39.391 172.707 42.4968C172.707 45.6027 170.814 47.5729 168.312 47.5729H168.314ZM168.297 39.1135C166.696 39.1135 165.814 40.4924 165.814 42.4968C165.814 44.704 166.807 45.972 168.37 45.972C169.932 45.972 170.888 44.3902 170.888 42.5523C170.888 40.5116 169.951 39.1135 168.295 39.1135H168.297Z" fill="#231F20"/>
<path d="M180.1 46.4894C179.824 47.2066 179.474 47.5737 178.757 47.5737C178.04 47.5737 177.709 47.2066 177.434 46.4894L174.289 37.7183H176.147L178.793 45.4413L181.368 37.7183H183.169L180.098 46.4894H180.1Z" fill="#231F20"/>
<path d="M189.238 47.5929C186.13 47.6847 184.973 46.1393 184.973 44.5041C184.973 42.869 186.463 41.0845 189.477 41.0845C189.863 41.0845 190.544 41.1571 191.15 41.4346V40.8646C191.15 39.6885 190.397 39.0993 188.888 39.0993C188.006 39.0993 187.122 39.3576 186.258 39.7802L185.799 38.365C186.772 37.8676 187.859 37.5752 189.255 37.5752C191.757 37.5752 192.969 38.7706 192.969 40.8476V46.8245C191.571 47.4136 190.487 47.5417 189.236 47.5972L189.238 47.5929ZM191.131 42.8114C190.487 42.536 189.955 42.4805 189.513 42.4805C188.649 42.4805 186.866 42.8669 186.866 44.5041C186.866 45.6803 187.951 46.214 189.202 46.214C189.846 46.2332 190.544 46.1414 191.133 45.8639V42.8114H191.131Z" fill="#231F20"/>
<path d="M198.705 47.6098C196.498 47.6098 196.259 46.2117 196.259 44.7964V39.1888H194.604V37.718H196.259V35.3828L198.079 34.8491V37.718H200.304V39.1888H198.079V44.7046C198.079 45.4218 198.336 46.1028 199.33 46.1028C199.68 46.1028 200.526 45.9192 200.948 45.7719L201.518 47.1509C200.637 47.5009 199.68 47.6098 198.705 47.6098Z" fill="#231F20"/>
<path d="M204.387 36.3942C203.726 36.3942 203.192 35.8605 203.192 35.1988C203.192 34.5371 203.726 34.0034 204.387 34.0034C205.049 34.0034 205.583 34.5371 205.583 35.1988C205.583 35.8605 205.049 36.3942 204.387 36.3942ZM203.448 47.3703V37.7176H205.269V47.3703H203.448Z" fill="#231F20"/>
<path d="M212.458 47.5729C210.031 47.5729 208.155 45.6603 208.155 42.5523C208.155 39.4443 210.048 37.5146 212.511 37.5146C214.975 37.5146 216.851 39.391 216.851 42.4968C216.851 45.6027 214.958 47.5729 212.456 47.5729H212.458ZM212.439 39.1135C210.838 39.1135 209.956 40.4924 209.956 42.4968C209.956 44.704 210.949 45.972 212.511 45.972C214.074 45.972 215.03 44.3902 215.03 42.5523C215.03 40.5116 214.093 39.1135 212.437 39.1135H212.439Z" fill="#231F20"/>
<path d="M225.622 42.2773C225.622 39.3166 223.434 39.0413 221.172 39.3914V47.3727H219.37V39.2462C219.37 38.3625 219.554 37.8673 220.657 37.72C224.041 37.2781 227.46 37.831 227.46 42.335V47.3727H225.622V42.2795V42.2773Z" fill="#231F20"/>
<path d="M49.8886 29.1984L35.2089 20.724V2.78906L65.42 20.231L49.8886 29.1984Z" fill="#FFBC00"/>
<path d="M49.8887 47.0087V63.9575L35.209 72.4319L20.5314 63.9575V47.0087L35.209 38.5321V20.5972L5 38.0391V72.925L35.209 90.3669L65.4201 72.925V38.0391L49.8887 47.0087Z" fill="url(#paint0_linear_346_1928)"/>
<path d="M83.0515 58.5897H80.5049C80.4259 58.5897 80.3769 58.5747 80.3555 58.5448C80.3342 58.5149 80.3235 58.4594 80.3235 58.3826V57.7422C80.3235 57.6718 80.3342 57.6205 80.3555 57.5864C80.3769 57.5522 80.4281 57.5352 80.5049 57.5352H86.9023C86.9813 57.5352 87.0304 57.5522 87.0518 57.5864C87.0731 57.6205 87.0838 57.6739 87.0838 57.7422V58.3826C87.0838 58.4616 87.0731 58.5149 87.0518 58.5448C87.0304 58.5747 86.9792 58.5897 86.9023 58.5897H84.2768V66.4514C84.2768 66.5475 84.2597 66.6072 84.2256 66.635C84.1914 66.6606 84.1295 66.6734 84.042 66.6734H83.297C83.2095 66.6734 83.1476 66.6606 83.107 66.635C83.0665 66.6094 83.0472 66.5475 83.0472 66.4514V58.5897H83.0515Z" fill="#231F20"/>
<path d="M88.2495 58.1709C88.2495 57.9446 88.2964 57.7781 88.3925 57.6671C88.4885 57.5583 88.6614 57.5049 88.9154 57.5049H91.906C92.3244 57.5049 92.7001 57.5689 93.0352 57.6949C93.3704 57.8208 93.6607 58.0001 93.904 58.2307C94.1474 58.4612 94.3352 58.7344 94.4654 59.0461C94.5956 59.3577 94.6618 59.7035 94.6618 60.0771C94.6618 60.6001 94.5316 61.059 94.2712 61.4539C94.0108 61.8509 93.6479 62.1349 93.1868 62.3099V62.3633C93.5433 62.4764 93.8016 62.6429 93.9574 62.8649C94.1132 63.0869 94.2349 63.3601 94.3224 63.6803L95.0802 66.4361C95.0973 66.4809 95.0994 66.53 95.0866 66.5855C95.0738 66.6431 95.0183 66.6709 94.9244 66.6709H94.062C94.0193 66.6709 93.9723 66.6624 93.9254 66.6453C93.8784 66.6282 93.8443 66.5791 93.8272 66.5023L93.1356 64.009C93.0651 63.7571 92.9755 63.548 92.8623 63.3815C92.7492 63.2171 92.6169 63.0848 92.4632 62.9887C92.3116 62.8926 92.1408 62.8286 91.953 62.7923C91.7651 62.7582 91.5624 62.7389 91.3468 62.7389H89.479V66.4468C89.479 66.5428 89.4619 66.6026 89.4256 66.6303C89.3915 66.6559 89.3253 66.6688 89.2292 66.6688H88.4971C88.4095 66.6688 88.3476 66.6559 88.3071 66.6303C88.2665 66.6047 88.2473 66.5428 88.2473 66.4468V58.1687L88.2495 58.1709ZM93.4579 60.1304C93.4579 59.9554 93.4323 59.7804 93.3789 59.6011C93.3255 59.4239 93.2359 59.2595 93.1057 59.1122C92.9755 58.9649 92.8004 58.8454 92.5827 58.7536C92.365 58.6618 92.0917 58.617 91.7609 58.617H89.4897V61.6994H91.6712C91.985 61.6994 92.254 61.6588 92.4802 61.5756C92.7065 61.4923 92.8922 61.3792 93.0352 61.2362C93.1783 61.0932 93.285 60.9267 93.3554 60.7409C93.4259 60.5531 93.46 60.3503 93.46 60.1347L93.4579 60.1304Z" fill="#231F20"/>
<path d="M102.287 66.673C102.208 66.673 102.146 66.6645 102.097 66.6474C102.05 66.6303 102.007 66.5727 101.973 66.4766L101.32 64.5576H97.6374L96.9842 66.4766C96.9415 66.6068 96.8497 66.673 96.711 66.673H95.823C95.7354 66.673 95.6821 66.6495 95.6607 66.6004C95.6394 66.5535 95.6372 66.4937 95.6543 66.4233L98.6065 58.0279C98.6769 57.8187 98.7538 57.6821 98.8413 57.6159C98.9288 57.5497 99.0718 57.5134 99.2725 57.5049H99.6653C99.9001 57.5049 100.058 57.5433 100.141 57.6223C100.225 57.7013 100.299 57.8357 100.37 58.0279L103.307 66.4233C103.333 66.4852 103.335 66.5407 103.313 66.5919C103.292 66.6453 103.236 66.6709 103.151 66.6709H102.289L102.287 66.673ZM100.105 60.7708L99.4902 58.8518H99.4241L98.837 60.7068L97.949 63.501H100.978L100.103 60.7708H100.105Z" fill="#231F20"/>
<path d="M110.381 57.7401C110.381 57.644 110.4 57.5842 110.441 57.5565C110.481 57.5287 110.543 57.5181 110.631 57.5181H111.31C111.397 57.5181 111.459 57.5309 111.5 57.5565C111.538 57.5821 111.559 57.644 111.559 57.7401V66.0181C111.559 66.2358 111.517 66.398 111.429 66.5069C111.342 66.6158 111.173 66.6691 110.919 66.6691H110.58C110.379 66.6691 110.238 66.6307 110.155 66.5517C110.071 66.4728 109.969 66.3383 109.847 66.1462L106.739 61.0017L105.708 59.2258H105.67V66.4471C105.67 66.5432 105.653 66.603 105.619 66.6307C105.585 66.6563 105.518 66.6691 105.422 66.6691H104.744C104.665 66.6691 104.605 66.6563 104.56 66.6307C104.517 66.6051 104.494 66.5432 104.494 66.4471V58.1691C104.494 57.9514 104.539 57.7892 104.63 57.6803C104.722 57.5714 104.889 57.5181 105.132 57.5181H105.471C105.664 57.5181 105.8 57.5565 105.883 57.6355C105.967 57.7144 106.069 57.8489 106.191 58.041L109.233 63.068L110.343 64.9614H110.381V57.7401Z" fill="#231F20"/>
<path d="M119.613 64.2315C119.613 64.667 119.53 65.0448 119.366 65.3672C119.201 65.6895 118.975 65.9584 118.687 66.1762C118.399 66.3939 118.059 66.554 117.669 66.6586C117.276 66.7632 116.855 66.8144 116.403 66.8144C116.151 66.8144 115.884 66.8038 115.607 66.7824C115.327 66.7611 115.045 66.7248 114.757 66.6714C114.469 66.618 114.185 66.5497 113.901 66.4622C113.617 66.3747 113.346 66.2658 113.086 66.1356C112.99 66.0822 112.973 65.9969 113.034 65.8752L113.348 65.1836C113.391 65.0875 113.461 65.0619 113.557 65.1046C114.01 65.3052 114.477 65.4589 114.962 65.5678C115.444 65.6767 115.886 65.73 116.288 65.73C116.949 65.73 117.466 65.6062 117.835 65.3586C118.204 65.111 118.39 64.7524 118.39 64.2806C118.39 64.0544 118.345 63.8559 118.254 63.6872C118.162 63.5165 118.027 63.3606 117.848 63.2176C117.669 63.0746 117.445 62.9401 117.176 62.812C116.907 62.6861 116.593 62.558 116.236 62.4278C115.758 62.2528 115.338 62.0799 114.977 61.9048C114.616 61.7298 114.315 61.5419 114.076 61.337C113.837 61.1321 113.656 60.9037 113.534 60.6518C113.412 60.3999 113.35 60.1075 113.35 59.7766C113.35 59.0637 113.598 58.483 114.095 58.039C114.591 57.595 115.314 57.373 116.262 57.373C116.697 57.373 117.156 57.4136 117.639 57.4969C118.121 57.5801 118.572 57.7125 118.99 57.896C119.086 57.9387 119.116 58.0134 119.082 58.118L118.794 58.8502C118.768 58.9121 118.742 58.9462 118.721 58.9548C118.7 58.9633 118.666 58.9591 118.623 58.942C118.179 58.7669 117.754 58.6431 117.351 58.5706C116.947 58.498 116.569 58.4596 116.221 58.4596C115.698 58.4596 115.295 58.5748 115.007 58.8054C114.719 59.0359 114.576 59.3305 114.576 59.687C114.576 59.9047 114.623 60.0925 114.719 60.2484C114.815 60.4042 114.956 60.5493 115.141 60.6796C115.327 60.8098 115.564 60.9357 115.852 61.0574C116.138 61.1791 116.478 61.3178 116.868 61.4758C117.233 61.6145 117.579 61.7618 117.91 61.9134C118.241 62.0649 118.531 62.2464 118.783 62.4555C119.035 62.6647 119.238 62.9124 119.389 63.2005C119.541 63.4887 119.618 63.8324 119.618 64.2315H119.613Z" fill="#231F20"/>
<path d="M127.012 66.6195C126.99 66.6536 126.939 66.6728 126.862 66.6728H123.127C122.708 66.6728 122.363 66.6109 122.089 66.4893C121.816 66.3676 121.594 66.2054 121.423 66.0068C121.253 65.8062 121.133 65.5714 121.065 65.3024C120.994 65.0335 120.96 64.7453 120.96 64.44V57.7416C120.96 57.6456 120.979 57.5837 121.02 57.5517C121.061 57.5196 121.118 57.5068 121.197 57.5068H121.902C121.998 57.5068 122.062 57.5218 122.098 57.5517C122.132 57.5815 122.149 57.6456 122.149 57.7416V64.519C122.149 65.232 122.51 65.5906 123.234 65.5906H126.865C126.944 65.5906 126.993 65.6077 127.014 65.6418C127.035 65.676 127.046 65.7293 127.046 65.7976V66.4508C127.046 66.5298 127.035 66.5853 127.014 66.6195H127.012Z" fill="#231F20"/>
<path d="M134.028 66.673C133.949 66.673 133.887 66.6645 133.838 66.6474C133.791 66.6303 133.748 66.5727 133.714 66.4766L133.061 64.5576H129.379L128.726 66.4766C128.683 66.6068 128.591 66.673 128.453 66.673H127.565C127.477 66.673 127.424 66.6495 127.402 66.6004C127.381 66.5535 127.379 66.4937 127.396 66.4233L130.348 58.0279C130.419 57.8187 130.495 57.6821 130.583 57.6159C130.67 57.5497 130.813 57.5134 131.014 57.5049H131.407C131.642 57.5049 131.8 57.5433 131.883 57.6223C131.966 57.7013 132.041 57.8357 132.111 58.0279L135.048 66.4233C135.074 66.4852 135.076 66.5407 135.055 66.5919C135.034 66.6453 134.978 66.6709 134.893 66.6709H134.03L134.028 66.673ZM131.849 60.7708L131.234 58.8518H131.168L130.581 60.7068L129.693 63.501H132.722L131.847 60.7708H131.849Z" fill="#231F20"/>
<path d="M137.919 58.5897H135.373C135.294 58.5897 135.245 58.5747 135.223 58.5448C135.202 58.5149 135.191 58.4594 135.191 58.3826V57.7422C135.191 57.6718 135.202 57.6205 135.223 57.5864C135.245 57.5522 135.296 57.5352 135.373 57.5352H141.77C141.849 57.5352 141.898 57.5522 141.92 57.5864C141.941 57.6205 141.952 57.6739 141.952 57.7422V58.3826C141.952 58.4616 141.941 58.5149 141.92 58.5448C141.898 58.5747 141.847 58.5897 141.77 58.5897H139.145V66.4514C139.145 66.5475 139.128 66.6072 139.093 66.635C139.059 66.6606 138.997 66.6734 138.91 66.6734H138.165C138.077 66.6734 138.015 66.6606 137.975 66.635C137.934 66.6094 137.915 66.5475 137.915 66.4514V58.5897H137.919Z" fill="#231F20"/>
<path d="M149.156 66.6075C149.126 66.6502 149.058 66.6737 148.953 66.6737H145.322C144.895 66.6737 144.541 66.6118 144.257 66.4901C143.973 66.3685 143.747 66.2062 143.578 66.0077C143.407 65.8071 143.288 65.5722 143.22 65.3033C143.149 65.0343 143.115 64.7462 143.115 64.4409V59.7661C143.115 59.4694 143.153 59.1855 143.232 58.9101C143.311 58.6369 143.439 58.3957 143.617 58.1929C143.796 57.988 144.024 57.8258 144.302 57.7041C144.579 57.5824 144.921 57.5205 145.32 57.5205H148.885C148.981 57.5205 149.043 57.5419 149.075 57.5867C149.105 57.6315 149.12 57.6998 149.12 57.7959V58.3445C149.12 58.4405 149.105 58.5067 149.075 58.5473C149.045 58.5857 148.981 58.607 148.885 58.607H145.333C144.968 58.607 144.703 58.6881 144.543 58.8482C144.383 59.0083 144.302 59.2602 144.302 59.5996V61.2966H148.454C148.55 61.2966 148.612 61.318 148.644 61.3628C148.674 61.4076 148.688 61.4759 148.688 61.572V62.0672C148.688 62.1547 148.674 62.2188 148.644 62.2636C148.614 62.3084 148.55 62.3298 148.454 62.3298H144.302V64.601C144.302 64.8977 144.381 65.1347 144.537 65.3118C144.692 65.4911 144.959 65.5787 145.333 65.5787H148.949C149.053 65.5787 149.12 65.6 149.152 65.6448C149.182 65.6897 149.196 65.758 149.196 65.854V66.4026C149.196 66.4987 149.182 66.567 149.152 66.6118L149.156 66.6075Z" fill="#231F20"/>
<path d="M156.149 58.5897H153.602C153.523 58.5897 153.474 58.5747 153.453 58.5448C153.432 58.5149 153.421 58.4594 153.421 58.3826V57.7422C153.421 57.6718 153.432 57.6205 153.453 57.5864C153.474 57.5522 153.526 57.5352 153.602 57.5352H160C160.079 57.5352 160.128 57.5522 160.149 57.5864C160.171 57.6205 160.181 57.6739 160.181 57.7422V58.3826C160.181 58.4616 160.171 58.5149 160.149 58.5448C160.128 58.5747 160.077 58.5897 160 58.5897H157.374V66.4514C157.374 66.5475 157.357 66.6072 157.323 66.635C157.289 66.6606 157.227 66.6734 157.14 66.6734H156.395C156.307 66.6734 156.245 66.6606 156.205 66.635C156.164 66.6094 156.145 66.5475 156.145 66.4514V58.5897H156.149Z" fill="#231F20"/>
<path d="M167.17 57.7547C167.17 57.6587 167.189 57.5989 167.228 57.5711C167.266 57.5455 167.33 57.5327 167.418 57.5327H168.122C168.218 57.5327 168.282 57.5455 168.318 57.5711C168.353 57.5968 168.37 57.6587 168.37 57.7547V66.4511C168.37 66.5472 168.353 66.6069 168.318 66.6347C168.284 66.6603 168.218 66.6731 168.122 66.6731H167.418C167.33 66.6731 167.268 66.6603 167.228 66.6347C167.187 66.6091 167.17 66.5472 167.17 66.4511V62.3761H162.574V66.4511C162.574 66.5472 162.557 66.6069 162.521 66.6347C162.484 66.6603 162.42 66.6731 162.322 66.6731H161.596C161.518 66.6731 161.456 66.6603 161.411 66.6347C161.366 66.6091 161.345 66.5472 161.345 66.4511V57.7547C161.345 57.6587 161.366 57.5989 161.411 57.5711C161.456 57.5455 161.518 57.5327 161.596 57.5327H162.322C162.418 57.5327 162.484 57.5455 162.521 57.5711C162.555 57.5968 162.574 57.6587 162.574 57.7547V61.3323H167.17V57.7547Z" fill="#231F20"/>
<path d="M176.37 66.6075C176.341 66.6502 176.272 66.6737 176.168 66.6737H172.537C172.11 66.6737 171.755 66.6118 171.471 66.4901C171.188 66.3685 170.961 66.2062 170.793 66.0077C170.622 65.8071 170.502 65.5722 170.434 65.3033C170.364 65.0343 170.329 64.7462 170.329 64.4409V59.7661C170.329 59.4694 170.368 59.1855 170.447 58.9101C170.526 58.6369 170.654 58.3957 170.831 58.1929C171.01 57.988 171.239 57.8258 171.516 57.7041C171.794 57.5824 172.135 57.5205 172.535 57.5205H176.099C176.195 57.5205 176.257 57.5419 176.289 57.5867C176.319 57.6315 176.334 57.6998 176.334 57.7959V58.3445C176.334 58.4405 176.319 58.5067 176.289 58.5473C176.259 58.5857 176.195 58.607 176.099 58.607H172.547C172.182 58.607 171.918 58.6881 171.758 58.8482C171.597 59.0083 171.516 59.2602 171.516 59.5996V61.2966H175.668C175.764 61.2966 175.826 61.318 175.858 61.3628C175.888 61.4076 175.903 61.4759 175.903 61.572V62.0672C175.903 62.1547 175.888 62.2188 175.858 62.2636C175.828 62.3084 175.764 62.3298 175.668 62.3298H171.516V64.601C171.516 64.8977 171.595 65.1347 171.751 65.3118C171.907 65.4911 172.174 65.5787 172.547 65.5787H176.163C176.268 65.5787 176.334 65.6 176.366 65.6448C176.396 65.6897 176.411 65.758 176.411 65.854V66.4026C176.411 66.4987 176.396 66.567 176.366 66.6118L176.37 66.6075Z" fill="#231F20"/>
<path d="M182.546 66.6264C182.507 66.6563 182.439 66.6713 182.343 66.6713H181.69C181.593 66.6713 181.523 66.6563 181.48 66.6264C181.438 66.5966 181.414 66.5282 181.414 66.4236V59.7637C181.414 59.467 181.45 59.1831 181.525 58.9077C181.6 58.6345 181.722 58.3933 181.89 58.1905C182.061 57.9856 182.285 57.8233 182.569 57.7016C182.853 57.58 183.203 57.5181 183.619 57.5181H187.21C187.314 57.5181 187.38 57.5394 187.412 57.5842C187.442 57.6291 187.457 57.6974 187.457 57.7934V58.3292C187.457 58.4338 187.442 58.5064 187.412 58.5448C187.383 58.5832 187.314 58.6046 187.21 58.6046H183.632C183.267 58.6046 183.002 58.6836 182.842 58.8394C182.682 58.9952 182.601 59.245 182.601 59.5844V61.4116H186.727C186.823 61.4116 186.885 61.4308 186.917 61.4714C186.947 61.5098 186.962 61.5781 186.962 61.6741V62.1843C186.962 62.2718 186.947 62.338 186.917 62.3871C186.887 62.4341 186.823 62.4597 186.727 62.4597H182.601V66.4301C182.601 66.5347 182.582 66.603 182.541 66.6328L182.546 66.6264Z" fill="#231F20"/>
<path d="M188.832 57.7547C188.832 57.6587 188.851 57.5989 188.892 57.5711C188.93 57.5455 188.986 57.5327 189.054 57.5327H189.838C189.917 57.5327 189.972 57.5455 190.008 57.5711C190.042 57.5968 190.06 57.6587 190.06 57.7547V62.6643C190.06 63.1958 190.092 63.6548 190.158 64.0411C190.224 64.4296 190.356 64.7498 190.557 65.0081C190.758 65.2643 191.039 65.4542 191.406 65.5759C191.772 65.6976 192.256 65.7595 192.856 65.7595C193.003 65.7595 193.234 65.751 193.548 65.7339C193.861 65.7168 194.209 65.672 194.591 65.6037V57.7568C194.591 57.6608 194.608 57.601 194.643 57.5733C194.677 57.5477 194.734 57.5349 194.813 57.5349H195.584C195.663 57.5349 195.712 57.5477 195.733 57.5733C195.755 57.5989 195.765 57.6608 195.765 57.7568V65.5268C195.765 65.8321 195.697 66.0818 195.563 66.2782C195.428 66.4746 195.172 66.6069 194.798 66.6774C194.468 66.7393 194.122 66.7798 193.761 66.8012C193.4 66.8225 193.08 66.8332 192.8 66.8332C192.077 66.8332 191.464 66.7649 190.96 66.6304C190.454 66.4959 190.047 66.2697 189.733 65.9516C189.419 65.6336 189.193 65.2109 189.054 64.6858C188.915 64.1585 188.845 63.5032 188.845 62.7198L188.832 57.7568V57.7547Z" fill="#231F20"/>
<path d="M199.672 58.5897H197.125C197.046 58.5897 196.997 58.5747 196.976 58.5448C196.955 58.5149 196.944 58.4594 196.944 58.3826V57.7422C196.944 57.6718 196.955 57.6205 196.976 57.5864C196.997 57.5522 197.048 57.5352 197.125 57.5352H203.523C203.602 57.5352 203.651 57.5522 203.672 57.5864C203.693 57.6205 203.704 57.6739 203.704 57.7422V58.3826C203.704 58.4616 203.693 58.5149 203.672 58.5448C203.651 58.5747 203.6 58.5897 203.523 58.5897H200.897V66.4514C200.897 66.5475 200.88 66.6072 200.846 66.635C200.812 66.6606 200.75 66.6734 200.662 66.6734H199.917C199.83 66.6734 199.768 66.6606 199.727 66.635C199.687 66.6094 199.668 66.5475 199.668 66.4514V58.5897H199.672Z" fill="#231F20"/>
<path d="M204.854 57.7547C204.854 57.6587 204.874 57.5989 204.914 57.5711C204.953 57.5455 205.008 57.5327 205.076 57.5327H205.86C205.939 57.5327 205.994 57.5455 206.031 57.5711C206.065 57.5968 206.082 57.6587 206.082 57.7547V62.6643C206.082 63.1958 206.114 63.6548 206.18 64.0411C206.246 64.4296 206.378 64.7498 206.579 65.0081C206.78 65.2643 207.062 65.4542 207.429 65.5759C207.794 65.6976 208.278 65.7595 208.878 65.7595C209.025 65.7595 209.256 65.751 209.57 65.7339C209.884 65.7168 210.231 65.672 210.614 65.6037V57.7568C210.614 57.6608 210.631 57.601 210.665 57.5733C210.699 57.5477 210.757 57.5349 210.836 57.5349H211.606C211.685 57.5349 211.734 57.5477 211.756 57.5733C211.777 57.5989 211.788 57.6608 211.788 57.7568V65.5268C211.788 65.8321 211.719 66.0818 211.585 66.2782C211.45 66.4746 211.194 66.6069 210.821 66.6774C210.49 66.7393 210.144 66.7798 209.783 66.8012C209.422 66.8225 209.102 66.8332 208.823 66.8332C208.099 66.8332 207.486 66.7649 206.983 66.6304C206.477 66.4959 206.069 66.2697 205.755 65.9516C205.441 65.6336 205.215 65.2109 205.076 64.6858C204.938 64.1585 204.867 63.5032 204.867 62.7198L204.854 57.7568V57.7547Z" fill="#231F20"/>
<path d="M213.747 58.1709C213.747 57.9446 213.794 57.7781 213.89 57.6671C213.986 57.5583 214.159 57.5049 214.413 57.5049H217.404C217.822 57.5049 218.198 57.5689 218.533 57.6949C218.868 57.8208 219.158 58.0001 219.402 58.2307C219.645 58.4612 219.833 58.7344 219.963 59.0461C220.093 59.3577 220.16 59.7035 220.16 60.0771C220.16 60.6001 220.029 61.059 219.769 61.4539C219.509 61.8509 219.146 62.1349 218.685 62.3099V62.3633C219.041 62.4764 219.299 62.6429 219.455 62.8649C219.611 63.0869 219.733 63.3601 219.82 63.6803L220.578 66.4361C220.595 66.4809 220.597 66.53 220.584 66.5855C220.572 66.6431 220.516 66.6709 220.422 66.6709H219.56C219.517 66.6709 219.47 66.6624 219.423 66.6453C219.376 66.6282 219.342 66.5791 219.325 66.5023L218.633 64.009C218.563 63.7571 218.473 63.548 218.36 63.3815C218.247 63.2171 218.115 63.0848 217.961 62.9887C217.809 62.8926 217.639 62.8286 217.451 62.7923C217.263 62.7582 217.06 62.7389 216.845 62.7389H214.977V66.4468C214.977 66.5428 214.96 66.6026 214.923 66.6303C214.889 66.6559 214.823 66.6688 214.727 66.6688H213.995C213.907 66.6688 213.845 66.6559 213.805 66.6303C213.764 66.6047 213.745 66.5428 213.745 66.4468V58.1687L213.747 58.1709ZM218.958 60.1304C218.958 59.9554 218.932 59.7804 218.879 59.6011C218.825 59.4239 218.736 59.2595 218.606 59.1122C218.475 58.9649 218.3 58.8454 218.083 58.7536C217.865 58.6618 217.592 58.617 217.261 58.617H214.99V61.6994H217.171C217.485 61.6994 217.754 61.6588 217.98 61.5756C218.206 61.4923 218.392 61.3792 218.535 61.2362C218.678 61.0932 218.785 60.9267 218.855 60.7409C218.926 60.5531 218.96 60.3503 218.96 60.1347L218.958 60.1304Z" fill="#231F20"/>
<path d="M227.96 66.6075C227.93 66.6502 227.861 66.6737 227.757 66.6737H224.126C223.699 66.6737 223.344 66.6118 223.061 66.4901C222.777 66.3685 222.55 66.2062 222.382 66.0077C222.211 65.8071 222.091 65.5722 222.023 65.3033C221.953 65.0343 221.919 64.7462 221.919 64.4409V59.7661C221.919 59.4694 221.957 59.1855 222.036 58.9101C222.115 58.6369 222.243 58.3957 222.42 58.1929C222.6 57.988 222.828 57.8258 223.105 57.7041C223.383 57.5824 223.724 57.5205 224.124 57.5205H227.688C227.784 57.5205 227.846 57.5419 227.878 57.5867C227.908 57.6315 227.923 57.6998 227.923 57.7959V58.3445C227.923 58.4405 227.908 58.5067 227.878 58.5473C227.849 58.5857 227.784 58.607 227.688 58.607H224.136C223.771 58.607 223.507 58.6881 223.347 58.8482C223.187 59.0083 223.105 59.2602 223.105 59.5996V61.2966H227.257C227.353 61.2966 227.415 61.318 227.447 61.3628C227.477 61.4076 227.492 61.4759 227.492 61.572V62.0672C227.492 62.1547 227.477 62.2188 227.447 62.2636C227.417 62.3084 227.353 62.3298 227.257 62.3298H223.105V64.601C223.105 64.8977 223.184 65.1347 223.34 65.3118C223.496 65.4911 223.763 65.5787 224.136 65.5787H227.752C227.857 65.5787 227.923 65.6 227.955 65.6448C227.985 65.6897 228 65.758 228 65.854V66.4026C228 66.4987 227.985 66.567 227.955 66.6118L227.96 66.6075Z" fill="#231F20"/>
<defs>
<linearGradient id="paint0_linear_346_1928" x1="52.8494" y1="28.1409" x2="19.9359" y2="79.158" gradientUnits="userSpaceOnUse">
<stop stop-color="#BBBDBF"/>
<stop offset="0.34" stop-color="#B0B2B5"/>
<stop offset="0.93" stop-color="#95979A"/>
<stop offset="1" stop-color="#929497"/>
</linearGradient>
</defs>
</svg>
