<svg width="50" height="50" viewBox="0 0 50 50" fill="none" xmlns="http://www.w3.org/2000/svg">
<path d="M25 0L46.6506 12.5V37.5L25 50L3.34937 37.5V12.5L25 0Z" fill="#FFB800"/>
<path d="M17 33C16.45 33 15.9793 32.8043 15.588 32.413C15.1967 32.0217 15.0007 31.5507 15 31V19C15 18.45 15.196 17.9793 15.588 17.588C15.98 17.1967 16.4507 17.0007 17 17H33C33.55 17 34.021 17.196 34.413 17.588C34.805 17.98 35.0007 18.4507 35 19V31C35 31.55 34.8043 32.021 34.413 32.413C34.0217 32.805 33.5507 33.0007 33 33H17ZM25 26L17 21V31H33V21L25 26ZM25 24L33 19H17L25 24ZM17 21V19V31V21Z" fill="#1E1E1E"/>
</svg>
