<svg width="53" height="69" viewBox="0 0 53 69" fill="none" xmlns="http://www.w3.org/2000/svg">
<path d="M26.5 0C11.8659 0 0 11.8728 0 26.5276C0 26.9492 0.0164441 27.371 0.0328562 27.7872C0.0328562 27.8748 0.0438136 27.9569 0.0492843 28.0445C1.24737 53.3071 26.5 68.2576 26.5 68.2576C26.5 68.2576 51.7528 53.3071 52.9509 28.0445C52.9509 27.9624 52.9618 27.8748 52.9673 27.7872C52.9837 27.371 52.9945 26.9492 53 26.5276C53 11.8782 41.1341 0 26.5 0Z" fill="black"/>
<circle cx="26.0985" cy="25.2955" r="14.053" fill="white"/>
<path d="M30.402 20.0757L26.5 17.7565V12.8484L34.5303 17.6216L30.402 20.0757Z" fill="#FFBC00"/>
<path d="M30.4018 24.1593V28.8411L26.4997 31.182L22.5982 28.8411V24.1593L26.4997 21.8178V16.8635L18.4697 21.6816V31.3182L26.4997 36.1363L34.5303 31.3182V21.6816L30.4018 24.1593Z" fill="url(#paint0_linear_219_7533)"/>
<defs>
<linearGradient id="paint0_linear_219_7533" x1="31.1888" y1="18.9474" x2="21.9575" y2="32.7166" gradientUnits="userSpaceOnUse">
<stop stop-color="#BBBDBF"/>
<stop offset="0.34" stop-color="#B0B2B5"/>
<stop offset="0.93" stop-color="#95979A"/>
<stop offset="1" stop-color="#929497"/>
</linearGradient>
</defs>
</svg>
