<svg width="50" height="50" viewBox="0 0 50 50" fill="none" xmlns="http://www.w3.org/2000/svg">
<path d="M25 0L46.6506 12.5V37.5L25 50L3.34937 37.5V12.5L25 0Z" fill="#FFB800"/>
<path d="M21 16C21.5 16 23.5 20.5 23.5 21C23.5 22 22 23 21.5 24C21 25 22 26 23 27C23.39 27.39 25 29 26 28.5C27 28 28 26.5 29 26.5C29.5 26.5 34 28.5 34 29C34 31 32.5 32.5 31 33C29.5 33.5 28.5 33.5 26.5 33C24.5 32.5 23 32 20.5 29.5C18 27 17.5 25.5 17 23.5C16.5 21.5 16.5 20.5 17 19C17.5 17.5 19 16 21 16Z" stroke="#1E1E1E" stroke-width="2" stroke-linecap="round" stroke-linejoin="round"/>
</svg>
